<mxfile host="65bd71144e">
    <diagram id="ViS9hygLuXs7A-zhADh1" name="Page-1">
        <mxGraphModel dx="2002" dy="927" grid="1" gridSize="10" guides="1" tooltips="1" connect="1" arrows="1" fold="1" page="0" pageScale="1" pageWidth="850" pageHeight="1100" math="0" shadow="0">
            <root>
                <mxCell id="0"/>
                <mxCell id="1" parent="0"/>
                <mxCell id="4" style="edgeStyle=none;html=1;entryX=0;entryY=0.25;entryDx=0;entryDy=0;" parent="1" source="2" target="3" edge="1">
                    <mxGeometry relative="1" as="geometry"/>
                </mxCell>
                <mxCell id="5" value="render" style="edgeLabel;html=1;align=center;verticalAlign=middle;resizable=0;points=[];" parent="4" vertex="1" connectable="0">
                    <mxGeometry x="-0.1368" y="1" relative="1" as="geometry">
                        <mxPoint as="offset"/>
                    </mxGeometry>
                </mxCell>
                <mxCell id="2" value="Flask app" style="rounded=0;whiteSpace=wrap;html=1;" parent="1" vertex="1">
                    <mxGeometry x="-390" y="170" width="110" height="40" as="geometry"/>
                </mxCell>
                <mxCell id="7" style="edgeStyle=none;html=1;" parent="1" source="3" target="6" edge="1">
                    <mxGeometry relative="1" as="geometry"/>
                </mxCell>
                <mxCell id="8" style="edgeStyle=none;html=1;" edge="1" parent="1" source="3" target="9">
                    <mxGeometry relative="1" as="geometry">
                        <mxPoint x="170" y="429" as="targetPoint"/>
                    </mxGeometry>
                </mxCell>
                <mxCell id="3" value="" style="shape=image;verticalLabelPosition=bottom;labelBackgroundColor=default;verticalAlign=top;aspect=fixed;imageAspect=0;image=data:image/png,iVBORw0KGgoAAAANSUhEUgAABaMAAAMcCAYAAABNT7n/AAAAAXNSR0IArs4c6QAAAARnQU1BAACxjwv8YQUAAAAJcEhZcwAADsMAAA7DAcdvqGQAAFy1SURBVHhe7f19kFV3nS/6fzC3KhoHvBxgTBRmtMFONTh5NBeZVJiIp3kom6BDzHVQZ3zI/IAimSbhhugcEzHmOIZUEvpEbqBOouecOJy5KFeB9pCm74kRf/kx+WWISY5NV1q6nZmQBAWGK4xRqi5y99p7dffeux9oHr7Q0K9X1ap81+Nea+3u/uPNJ5/vqP379x8PAAAAAABIaNTxgnwMAAAAAABJvCX/LwAAAAAAJCOMBgAAAAAgOWE0AAAAAADJCaMBAAAAAEhOGA0AAAAAQHLCaAAAAAAAkhNGAwAAAACQnDAaAAAAAIDkhNEAAAAAACQnjAYAAAAAIDlhNAAAAAAAyQmjAQAAAABIThgNAAAAAEBywmgAAAAAAJITRgMAAAAAkJwwGgAAAACA5ITRAAAAAAAkJ4wGAAAAACA5YTQAAAAAAMkJowEAAAAASE4YDQAAAABAcsJoAAAAAACSE0YDAAAAAJCcMBoAAAAAgOSE0QAAAAAAJCeMBgAAAAAgOWE0AAAAAADJCaMBAAAAAEhOGA0AAAAAQHLCaAAAAAAAkhNGAwAAAACQnDAaAAAAAIDkhNEAAAAAACQnjKakY33Mr50aNWXL8m35Poax1lhe9b3NX9uV7+vP0Ti870AcPZavjkRHj8T+/UfzFQAAAADOFmE0jBCHn74/5l91dVw1c2bUvX92LN24N98zUhyJZ766MOr+aHpMv/7qqPlQY2z8p3wXAAAAAMkJo8+pvlWtNXe25vsYyAsPNVS+s+KyJDYezg+gr2M74mtf3BBtb3av742WL98TT+7L10eCp1fH8ifbo6cm+rXW+MKqDbE/Xx2Z+vkbNORlYaztyC8DAAAAMATCaM4zL8ZTzf21odgRG0dcpe9J6GyPtkP5uNux56Ltf+TjEWBP++7o8+8Vf98eL+RDAAAAANISRnN+eXpTbHwtH1d5YesPYk8+psrkurhmfD7udlF9XDM9H5+njv7Ti7Fl7T3xybnT4wsn6HE+5Y+ujgn5uMesq2JGPgQAAAAgLWE055Vnnt7et7q1W/vW2PxiPqbSRTPjK098KW78w4uLqxf/4cxY8a3745YxxdXzz9P3x/QPTI26+kWxvGlT7Ow6Er/Ndw1o5pfim/fMjEmXZCsXx6RZjfG39y+M8/UVAAAAAJxvhNGcPw5viv9j05F8JTMzbpyZD4u6Yst2afSA6hbFN1t/El0du6O9dV0s++DofMd56Ojh2H8KPcKnfXpd/OjF3YV38JP40brFMWNsvoNeDU3Fn5ETL5tiWW1+DgAAAMAQCKM5bxx+qjVajuUrmQ/OjD+/ui5fKXl106Z4pvwYAAAAAGBYEEZzntgbG7+3Ix+XXDNzZtxYPzum5etFh7bHUz/KxwAAAADAsCGM5vzwWms8tSsfF10Vc+dNjKitj7kVxdFHYuOmTQP3lQYAAAAAzglh9HnsaPuOeHz1yvhkw+yYftXUqKnNl7rpMf1Di+JzX10fW3btjaP58adl/4vx5OolcfPM6b2fc9XM+JNblsTXNrwY+xO3xnjh7zbFC/m46Nr6mPPubFATN82/qripx9M74qmhptEd62N+9/Pky/Jt+b7M6T536uufhJY7K++jZsH62JPvO6E326Nl7f3xuVsKP2sfKL/O1YWftYb45J2r4/Ed7XF0wPs9Gq/uau39ee3vGl9cHy3tA/+0Vtx/Y3O+tdeWxrL9xWVltOT7SlpjecX+qTF/bVe+7wSOHY22Hd+Kr9352Zj9oZlRV36dD5S+ry+vbY4XXhvab9ug38XRvfHChvsL72lmXFWX789+p7Ofie93nZnf57PoTP6d2rN2Ye/5xaXsO97/XKxd0tDzzurqV8fO0p6iQc89dqDnnfd8t4Xv9eY7Cz+TXf3f2f4XN8SXP9tQ8bN81czCz/FXN8QL+/ODAAAAgArC6PPQ0a7m+MKfTo+6BUvia483x86OvbH/zXxn5tiR2P/ai/HMk02x/M9mx1UL7oktAwQqQ9H25JL4k5mL4suP74gX9pVNIPjmgXj1xR3x+KpFMf3fLokn2/PtZ9yL8VRzZWh4zYfrY1I+njSvPq7Jx0XHWmPjxr35yqk6Gm2Pp3zu1Nc/Qw49F4/fuTDqrloYS5s2xDMvFn7WKoL+o4Wfta7Y2fyf4mu3fike78w39zgSbRvuifkfuDr+5M8ae39e+7vGpqZYuqBwXOOmeHXY9P0+Gnu+X7j/6VfH/FsfjMebn4s9rx0obC1zuPR9Pdm0Mm7+0Adj/peaY88p/rod/em34pMfmh03r9pQeE8H4nD3e8h+p7OfiZUNcdWfNcXOQ/n2Yexs/p06+tOmmD/zs/HQ01097+zoPxXeX2k4uPYN8bl/O7PnnffcQeF7faG58DM5tz4+Wf5LeGxvbGycHdNvuT+efLar4mf58L7Cz/GT98fNMxviy0+XT7YKAAAAZITR55lXNzbG7I+sjI0/HXrQcbR9Uyz/yPz4wraTD0fa1i6M+V/dceJw8LUd8eU/XRhrUwSnT2+Kja/l46LpsaBhYj4ueHd9zL02H+de+O+t8Wo+PhVtaxfF/NXpnjv19c+I9g3xyY98Nr7W3F4Zvp6Uv4//uGpTtA21Ur3g1W33xM13tZ77VivF0HF+zF55Mvd/NNo2rozZc++JlpMMjI+2r4+bP/5g7DyQbxjA0V3r45NfHN6taM7q36lDrXH3/2d9tJ3od6kf2Tuf/6f3xzMVf1+qHYidX10cy7P7OtYeaz+V3eMJ/rHrWFc8ueyv4slBrwsAAAAjjzD6PHJ428q4+UutfQPMi0bHhKtmxi0LFxaWhphRMzrfUSYL1u78zEmFmkf/x+q4oyk/ofAZU65vKH1Gw/SYMqa0ucKx9njoC02nFAoN5pmnt1cGbx+sj7mX5uOiiTHnw1WtOnZtio0v5uOTdHjHPfG5/p571lUx4Qw8d+rrnxF5SNdvMHrJ+N57Xjgzrrm0n5+3AYypmR43fboxvrJ6dazJllWNccu1Zf+wkNvf/NV4qHK+yphwdfZ5+XJ933MmXV+2v7gU3me+7+QdiZa7FvUfOo4ZH9fMyj9joN+F1zbF0s+fREB67Cfx0B35d1z9M3FJ6ZAKT6+Orz2dj4eZs/136qffbIotJwjw+9cZ/7H796pwb9OK3+kA9xUHYkvTN2Pj41+Kh3bl/zQzpiZmNGTnFH4Hxl9c2lbu2HPx0GNVP8QAAAAwwo06XpCPOeuyHraNsSVfK2poiq6H6/OVMoc2xef++J54pirgmbJwdfzvqxpiSlUWcvS1HfGN/60x1nYHJ91qFsd3n2qsbGuRyXobFz67LV8tN2VRUzzxxfqYVPEZR2PPhpXxyVWtUd0edc7fPBePLRx6QDmow5ti6fR7oqXsuWfcsyP+9tPj87Xcvg3xyZn3V/SInbJ4Q2xfURVSVxvwuS+OaxY3xSO3zezz3Fl7jc+tfm5oz536+v38DE1rbI6ty2rytV5Zn+Kl5a2W6xpj++bFMSVf7XHsxfjaRxbF49XtlMdPjxVf/2rcOnNi4e6rZL2vmzbE0T9fHbfW5tuKSvf3k5mL46//eknMqelzZtH+5pXRcGdz5TMvLPwu/E0/vwuZbSv79I2+qWl3rJmXr/Rr6O/q8MYlcdWXqoLEi2rilr/5D/GVj9ZUPf/ReHXHurjjr9bHC+VtKAoG+hns813kLr52cXzzPzTGjPIU/Wh7PPRnC2PtT/P1bgP9rTgp/fwNGqJ+33fiv1NZ3+fZ3f+QUzQ6xow9EocPRUya2RhfueczceMfFj7k6N545vEdcfGyRTEjP7Lvubn3L46t/7UxppXd2/7W++OTf7Uh9lQH6rkJDauj+cGGmHBRviH7vW1aFPOrU/Sxi+Kbz30pbsxXAQAAYKRTGX2eeOGb3+oT8ExoaIrv/k3fgCdz8btnxopvb4gV7883dOvaEBtPoqJy2rJNsX1VdRCdubgYUn/3nun5eq+WzVv7BKmn6vBTrRVBdNaiY259VRCduXR2zP1gPs7t2dgcz+TjkzWtcUN8d0V1UJy5OKbd+q34ZmNdvt7rZJ479fVPx6sbmvoJohvisR98K5b1F0RnJlwVn76/OojOjIk/vn97/OjxxgGD6MyEhr+Kv6xqtRL/Y3e//ziS3ovxH79ZXdE6Pm56+L/G1/sE0ZmLi0Hod7NAsyecLNmzcVOf39sB1S2O7367KojOXFwXK574atxYde149rlT/vlO5ez/nSoF0dMWF/5OPb64FERnLp4YN5YF0QMaWx9rnqgMojMT6r8UX/9s33+kKHp/Y3yzIojOFH5vG5vir6t/hg/9JNo68jEAAAAgjD4/7IjNG6vSwbEL44EH66O/DgE9LqqLZbctrDrmSGxsbs3HJzB+Uay4rW8oWm7SpxujT2Hp3++IH56RhrZ7Y+P3qkLBWQ2xoKJFR7fxsaBhZj7OHdoaT51KK4Oaz8RXlgz+3NOW3dPPcz8XO4cSPKa+/ml5MTb+7XP5uFvh5+iJ1TFnbL56UqbHLbf0banR18S45uqq4zpeK/wEnAM7muPJql+3MbfcH2vmnaDav25xrKiuXD+0Kb6/PR8PanTc0tg3zO4xdnbM/ZN83O3Q3vjlsGocfY7+TmW/T8vr+v9HkhOY9ueNcdMAP9fXfHR+TMvHvQrf022LB/ieJsaNN1b/XrfHz/pM6gkAAAAjlzD6fLDr7+OZqsnQJi1c2LdSsj9ZH9R35+NuP/lJvJAPBzPpow1D+Iyr4kOzqsPGvfHqmZi4q+MHsXlXPs7dOGv2gMHWmLn1Vf87/EkEWmWmzb85rjml5+6Mnw2hCjL19U9L13PxTHVVdP2i+MvBs/OTcDQO7zsQe3a1xpYN6+PLX7wnPnfL7PiTP746bn78nETPfbzw9zuqJgecGLd8rOofOgZw48cWxqR83O0n/2MIzcsvml34vvNxv0bHNX9U/SXsj/378uFwcI7+Tl1z86Ih/D71p6bw92SA6udMbU1Mzoc9xs6PuYN8T1NqpuYjAAAAoD/C6PPBG6/Fq/mw29V/dIJeyD2uivdfkQ+7vXZgSO0epk4d2mdMeU91oNMVr/5jPjwNL2zdWtWmYWbMnTtIdeqY2TG3uoXutubYeJLVo5NrBgmoypzqc6e+/ml5pbNPa4wb/2TgfwAYmqOxZ9v6WH7LzKirvTqumjkzZv9ZYyxf1RRPbtoUz7y4N149UNUz+Bza+1p1KH5VXFvdfmEgV02N6jjy1X1D+G2rndg3+DxXsl7UHbtPuPTpF31O/k7VxIx+JrMcmsnxvj5tZcoV9lfn/1fX9e23X+4PJ/ZTTQ0AAAB0E0afB/b8U3U4VhOT3pMPh+DiU6oaHPp5Y0afXlTZvxfjqebqEt0d8YUPTI2a2oGW6fGF6kLoY62xefOBfOXMSvPcvVJfvz97/rm6p0BNTPujE7SnGMyhHfHlBR+M2Y1NseXFAzF8IueB9BP41747hhx3XnTxKbWLuBCcm79TJwqUB1P4rk72My8Zc5r/MAMAAAAjmzD6XDp8uKodwFBdHG89xYA5iWMJIsanN8XGM9Hqo2Dnf9vap2LzjEjx3OVSX78//0/+3x6n8bN2rD3Wfn5JPNle9Rxjxsc1WVuGW++KNaub4rtP7YjnnvtJbO9n0sZh4aK3jtiA+fScjb9TpxAoAwAAAOeMMPpcem1vnwnaxozpG3u9Y0x1Ld7JTYp1NPGkd22dfatpT6Yisj8tzZtOMajvx67m2JKg13KK5y6X+vr9+p/y//Y49QnYXv3WV+Ohn+YrmYtq4pbVzdH+Dzviu+u+Gl9f+dm46aP1cU3N+JgwdrjEvWNizDvyYbf2zhjyKzh29Dyo/k5juP+dAgAAAM49YfQ5tP8fXow9+bjbtMl9J8Ca8IeT+/yv4UOaFK3oxfjpy/mw2/snD6k/7f4DQ2lvcSTa2qvbaUyMSdWTkZ2Mw5vi+9vycbdLxheumV13CMv46mCzPTZvHer7GmoodurPnfr6p6O/CdiG/rNWriu2/LfK8yYtuie+/tGaAauM9+4fDhMYFn7OaqrbkrwYu6om0hzQi7tjdz7sNu3yYdMNOqlz9XcKAAAAOH8Io8+ZvbH5vz2Xj7tNjGlTx+fjMlfVxYyq/xX91e83xzNDCTV3bY9nqtpdTPrg9JiSjwez8+9/dOLq5Ne+GxufzsfdPjgzPnQajVUPP9UaLVXPNmPF/xk/+uH2oS1PfSluzM/rtqd5e7yQj09k59/vyEeDOI3nTn390zL9qj7v7tVNG6LlpMvUO+Nn5VXRBVOvnp6P+vNi7Pr7I/n43Lrmjz6Yj7oVfle3DuE7K3jhv++oagkzMWZ8YGgTVp73ztHfKQAAAOD8IYw+R/Z//8H4RnW1Zc1HYu61+bjcmNnx0XlV1ZoHNsRDa9oHbwmQ9ez99/+pqvq6Jm6afVU+PoHWprh322AB4ZHYsnpdn5D3mpkzY0I+Pnl7Y+P3qoO/6TG3vp+QfiCF9zW3Ph93e21T33B3AIc3ro6vDVoJe3rPnfr6p6W/d3eoOe5d1Rz7h1TRPbC9/1Rd6d3rcPO34smBdw/JmWrzMKa+IW4am6/k9m9oiod+eoIGHO3r48vfqnqIgX6nL0Tn6u8UAAAAcN4QRie2Z8M98eUNL8aeQ1kcczQOd70YT35pYcxc2dqn6njGJxfGNfm40uiYs+RzMa2q6rBt/cKY/8Xm2NNf0rP/uXjoU4sqe/YWTFjYGH855IznQGy588/iC9/v6hsmHe2KJ5d9JJZXh9VjG+Ivb5mYr5yCjh/E5uqg9oP1MffSfDwko2PurOpE9Ug89fTQqluzFhOPf77w7p7tp01J9tyNC0/zuVNf/3SMjltuWxzT8rVu+5tXxsw/vSe2dPUfKx59Lfu5XhmP9/TmnhC/X9VSpO1v18WW/flKmf2t98fNd/X9fRjU28f0aQnR8s310XYmAukx9XHb56onU2yPtR9f2P/vQsH+Z5vi5j9rqvr88XHLis8N8Dt9ITpXf6cAAACA84UwOrVDu+PJVYti9vSro6b26rhq7qL48sZ+KgXf3xh/vWiQsLF2cXz9tuqALGLPppUx+6rpMf2WJfGFL95TWFbGJxtmRt31n421u6o+ZXxD3Leyvk+IN5AJ48dHHOuKjSsbou4DDfHJO7Pr3xPLP9sQV13VEF9u7Rum3rjinphzGq0kXti6NdrycbcZ9bNPuiJ4zEcb4qaqUOzwpk2xcQiJ55ixoyPefDHWfnZm4fv6bCwvvtfCsmRRTJ9eeO5t1b2NR8ece4b+3Kmvf9rqGuPrjX1/1o62b4rlc6+Ouj/u/Vn4wp2fjdkzp0fdh7Kf686yn+ur4o+vr66SbY7lhe/yk19cH09+vzmeXHt/fO5PCz+7yzbEnmPjY9r7TyJsv6qub8j706aYP31hfK74Pgu/B3Pvj5Z818macuv9seL9+Uq3nt+FmXHzkrLn/+OrY/pn18cLb+bH5SY03BN/XV/1Di505+DvFAAAAHD+EEYPB+Mb4rEnFvepKKw2bdmG2Np4Vd8J4I4dif0v7oiNWdi6qTl2dhzoG3a/e2E89oPVMaeq/cBgZiy/J27p7o5xuCt2NmfX3xRbnu2Kw/1UoE5ZtC7W3HI64duL8VRzda+Gk2zR0e2i+pg3Lx93O9YaTz114r7ENzbeHzflH3m467nYUnyvWZuPF2N/VeCYmXbrf4gHGob+3KmvfyZMW/af4m9v7RsqZo4e6P1Z2Nj8XOzZ1/87vXFpY58ewvHm3ti5qSm+vHJlfLlpQzzz09K5xeD2wyfxjP21E8kcbo9niu+z8HvQddKNrntdVBfL/uumWHFtP9MtHj4QLzxd9vwH+vy2xaSFTdH68MgMVM/23ykAAADg/CGMPscmzWyMvx1y+HJxMejZ8a3GuLGqBcLACufcsjq2P/XVkw94RtfH1zevjltO9FkXTYwbV26Kratmnl74lgV8VZOYnXyLjl5zGhb2uZ9nvvfdqgnm+jG2PtacxHN/d+X0k3vu1Nc/I0bHjMJnP7d2UUwb6odfdHFc/D/l48y7F8Vj31oc11ySrw9gyqKmaH6w/iSr30fHLfc3nfgdno6L62LZt1vjbxtnxqQT/ENRj0vq4pbVzbH9b0ZyZe9Z/jsFAAAAnDeE0Ym9o3ZqXPPu8RVVgmMurYkZCxvjsc0/iR89vjhmnGT4MuH6xfHNHxbO/a9filsbpseUquvHmPEx6aqZcesX18XWF38SW+9viCn9FHgOyYSG+Pr/tSO+u2pRzKgt+5yLRseE2ulxS2NTbN21Pb55a13lPZyCluZNffton0KLjh5/Uh9zq9/trtZoqQ68+5P6uc/iez0dE+q/FFufK/wMNTXGp2ddFZMuraxeHnPpxLhm1qJYsXpD/OjFDXFrTb4jN+aDjfHd/9+mWHPrzLim/NzCz+iU6xfFVzbuiO2r6mPCUMPecmPri+/wb1curHyHBaXfsekxOV8/ZReNjxnL1hWebXvhu/pM3HR9TUwaX/mNlN7BZ+KvH98U7bs2xdc/WnNOv7Ph4qz+nQIAAADOC6OOF+RjGHk61sf8hqaKPtU3Ne2ONdUtPk5V6usDAAAAwHlCZTQAAAAAAMkJowEAAAAASE4YDQAAAABAcsJoAAAAAACSE0YDAAAAAJCcMBoAAAAAgOSE0QAAAAAAJCeMBgAAAAAguVHHC/IxAAAAAAAkoTIaAAAAAIDkhNEAAAAAACQnjAYAAAAAIDlhNAAAAAAAyQmjAQAAAABIThgNAAAAAEBywmgAAAAAAJITRgMAAAAAkJwwGgAAAACA5ITRAAAAAAAkJ4wGAAAAACA5YTQAAAAAAMkJowEAAAAASE4YDQAAAABAcsJoAAAAAACSE0YDAAAAAJCcMBoAAAAAgOSE0QAAAAAAJCeMBgAAAAAgOWE0AAAAAADJCaMBAAAAAEhOGA0AAAAAQHLCaAAAAAAAkhNGAwAAAACQnDAaAAAAAIDkhNEAAAAAACQnjAYAAAAAIDlhNAAAAAAAyQmjz7muWLtgatTc2ZqvAwAAAABceITRZ8GetQujpnZq1bIw1nbkB5wlLXeWPnv5tnxDhdZYPuA+AAAAAIDTI4w+W+oaY3vH7ujqWTbFstpsR00s21xYf7i+eNgp2bYyampXRku+eiJbGod+LAAAAADAmSCMHmkaGmNFXXMs1RYEAAAAADiLhNHnXKln9Py1XVXrraVe0j2tM/Le0lVtPoqtNxqbC/ubY2lx+4mqnmti2YONMa258cQtOTrWx/yezyssC9bHnnxXpvjZd7b2tP/IltJzVN5r77P1Kj+nsmVJqV1If+cAAAAAAOcvYfQw1da0LuLBUkuPNfOy8LYhHprc1NPmY3vj5OJxcx4urDc1FEYN8Vhx3+qYU9wziNrF8Uhj3QnbdbSs64zb8s/r6miOFdEUs6srqpsbY1t9fkzhPtoKS01tQ/xsSfm2uyr6Y2dB9NLCtbqfpatpcjzUcPZ7aAMAAAAAZ48w+mxpb4rZPZXAhaWqyriPhiV5T+lMV+zpjJg2uRRAZ6YsW122/+RNWfbgCdt1zHm4PNiuiTmz6yI6C/eSbylqaCqG5UXzlhSuWfhvn23t8VRrXuncsT6+0dwQj5X3yK44pj7WdOyOrctqSvsAAAAAgAuCMPpsqZ7AcPPimJLv6k958FxsrbGku+r4TE0+OLR2HeXtNGY3tedbB1d571U6O6Otp6VI99IQDw3t0gAAAADAeUoYfb6Yt7oYYm9v7Bxib+ghGKxdR94vurydxvbCsWdEdTCfL6qhAQAAAODCJYw+z0xZtim6OpripmiObSeagHAIett1dMX7yrLmPa3boy0LjcvbaZwJkyfHtPbt0aI/NAAAAACMKMLo80JXrL1zkB7TWcAbnbHnlALe7nYdTRWtMqbUTI5o7yxcNdexPu4YYpuOQdXWx9y69njorsrnabmzuzq7NZbXTo35a/Me0wAAAADABUEYfb7oLJ8AsTGiaXfvJIG1i+O2hvZ4qOEU23fk7ToqzFsdjzWU9Xa+K+K2M9KmoyaWbW6OFVE5oeM3Ji8pmywRAAAAALjQjDpekI8BAAAAACAJldEAAAAAACQnjAYAAAAAIDlhNAAAAAAAyQmjAQAAAABIThgNAAAAAEByo44X5GMSefM3v41fHDgUh4/8On7ndQMAAADAiPWWUaNizOi3xzvHj41L3vbWfOvIIIxOLAuif/bzvfHuSyfE2HeMjosuUowOAAAAACPVsWO/i0O/OhKv7dsf73vvxBEVSAujE/v5q2/E6LdfEuP/zTvyLQAAAADASHfgX34VR379Zrx30mX5lgufMt3EstYcWUU0AAAAAEC3LDPMssORRBidWNYjWmsOAAAAAKBclhmOtPnlpKQAAAAAACQnjAYAAAAAIDlhNAAAAAAAyQmjAQAAAABIThgNAAAAAEBywmgAAAAAAJITRgMAAAAAkJwwGgAAAACA5ITRAAAAAAAkJ4wGAAAAACA5YTQAAAAAAMkJowEAAAAASE4YDQAAAABAcsJoAAAAAACSE0YDAAAAAJCcMBoAAAAAgOSE0QAAAAAAJCeMBgAAAAAgOWE0AAAAAADJCaMBAAAAAEhOGA0AAAAAQHLCaAAAAAAAkhNGAwAAAACQnDAaAAAAAIDkhNEAAAAAACQnjAYAAAAAIDlhNAAAAAAAyQmjAQAAAABIThgNAAAAAEBywujE3jJqVBw79rt8DQAAAAAgiplhlh2OJMLoxMaMfnsc+tWRfA0AAAAAIIqZYZYdjiTC6MTeOX5svLZvfxz4l1+pkAYAAACAES7LCLOsMMsMs+xwJBl1vCAfk8ibv/lt/OLAoTh85NfxO68bAAAAAEasrDVHVhGdBdGXvO2t+daRQRgNAAAAAEBy2nQAAAAAAJCcMBoAAAAAgOSE0QAAAAAAJCeMBgAAAAAgOWE0AAAAAADJCaMBAAAAAEhOGA0AAAAAQHLCaAAAAAAAkhNGAwAAAACQnDAaAAAAAIDkhNEAAAAAACQnjAYAAAAAIDlhNAAAAAAAyQmjAQAAAABIThgNAAAAAEBywmgAAAAAAJITRgMAAAAAkJwwGgAAAACA5ITRAAAAAAAkJ4wGAAAAACA5YTQAAAAAAMkJowEAAAAASE4YDQAAAABAcsJoAAAAAACSE0YDAAAAAJCcMBoAAAAAgOSE0QAAAAAAJCeMBgAAAAAgOWE0AAAAAADJCaMBAAAAAEhOGH0W7Fm7MGoWrI89+fpZ17E+5tdOHfAezvn9AQAAAAAXPGH0ea0r1i6YGvPXduXrJ9DeFHcM9VgAAAAAgDNIGD1i1MWKxoZoa7or1nbkmwAAAAAAzhJh9DBQbJORtdHIlz6VzttWVuyvubM1b73REA+1R7Q1NfR/XrX61fFYQ3s8dNeJW3K03Fn2eYVl+bZ8R6b42Qtj7ba8/UdxWRkt2b6Ke823letuGdK9ZM+SK72Hfs4BAAAAAM57wuhzrjW+0bkkujp2l5bmxoimht7wNwtvGztjRXO+v6Mpbsq21y6OrR3NsaIuYlpjc3Hf1mU1xVMGM+fhwvknatdR+Mxtk0vXLC6F+9nSuLCqoro9HloX8UjxmOw+mmNpFi6vmxzby7eVhc3FZ2nYHnN7nqVwTGdjRSANAAAAAFyYhNHnXH2sebg+HxfU1sfcuojOrjws7uyMtpgcU2pLq32OP2mF85tO0K6jdnGsKQ+259XHTdEeP+vM14vqYsWDi2NKcVwTy5Y09L+tubWn0rllXVNE44OxrOdZKo+ZsmxTdHWsjjmlnQAAAADABUQYPSy0xvKe1hWl1hs95i3pqToe8kSFJzJvCO06KtppNMaWfPPgykPzal2xp7O3pUjP0tic7wcAAAAALmTC6HOs1Cc5a81R1rqiLt9ZVBPLNmfbm2LyUHtDD8Fg7TqK/aIr2mnkrUHOgJt6nrN8UQ0NAAAAABc6YfQ51RUt29uLPZ/XzMs3Dag+1nTsju2NddG2vfWEExCeWG+7jpaYnG/LtMa25iw03lTWTuNMqIkphY/Z0qo/NAAAAACMRMLoc6oU0LZ19jZj3rP2rso2HdtW9k5m2Eff809Kd7uOpvJWGZPjfeU9qwta7hxqm47BzanP+kM3Vj5Px/pYnldnl6rEV/b0mAYAAAAALhzC6LOlvSlml/dKLixZKFtsl9Hc2LPtjsh6ROfn5LY09p4ze/vs2L65e5LAwvlLGmNafv6ptO8ofn4+LqmJZQ9mbUN6eztvqz9DbTrmrY6uwnXLn6emoTPmlU+WCAAAAABckEYdL8jHAAAAAACQhMpoAAAAAACSE0YDAAAAAJCcMBoAAAAAgOSE0QAAAAAAJCeMBgAAAAAguVHHC/Ixibz5m9/GLw4cisNHfh2/87oBAAAAYMR6y6hRMWb02+Od48fGJW97a751ZBBGJ5YF0T/7+d5496UTYuw7RsdFFylGBwAAAICR6tix38WhXx2J1/btj/e9d+KICqSF0Yn9/NU3YvTbL4nx/+Yd+RYAAAAAYKQ78C+/iiO/fjPeO+myfMuFT5luYllrjqwiGgAAAACgW5YZZtnhSCKMTizrEa01BwAAAABQLssMR9r8clJSAAAAAACSE0YDAAAAAJCcMBoAAAAAgOSE0QAAAAAAJCeMBgAAAAAgOWE0AAAAAADJCaMBAAAAAEhOGA0AAAAAQHLCaAAAAAAAkhNGAwAAAACQnDAaAAAAAIDkhNEAAAAAACQnjAYAAAAAIDlhNAAAAAAAyQmjAQAAAABIThgNAAAAAEBywmgAAAAAAJITRgMAAAAAkJwwGgAAAACA5ITRAAAAAAAkJ4wGAAAAACA5YTQAAAAAAMkJowEAAAAASE4YDQAAAABAcsJoAAAAAACSE0YDAAAAAJCcMBoAAAAAgOSE0QAAAAAAJCeMBgAAAAAgOWF0Ym8ZNSqOHftdvgYAAAAAEMXMMMsORxJhdGJjRr89Dv3qSL4GAAAAABDFzDDLDkcSYXRi7xw/Nl7btz8O/MuvVEgDAAAAwAiXZYRZVphlhll2OJKMOl6Qj0nkzd/8Nn5x4FAcPvLr+J3XDQAAAAAjVtaaI6uIzoLoS9721nzryCCMBgAAAAAgOW06AAAAAABIThgNAAAAAEBywmgAAAAAAJITRgMAAAAAkJwwGgAAAACA5ITRAAAAAAAkJ4wGAAAAACA5YTQAAAAAAMkJowEAAAAASE4YDQAAAABAcsJoAAAAAACSE0YDAAAAAJCcMBoAAAAAgOSE0QAAAAAAJCeMBgAAAAAgOWE0AAAAAADJCaMBAAAAAEhOGA0AAAAAQHLCaAAAAAAAkhNGAwAAAACQnDAaAAAAAIDkhNEAAAAAACQnjAYAAAAAIDlhNAAAAAAAyQmjAQAAAABIThgNAAAAAEBywmgAAAAAAJITRgMAAAAAkJwwGgAAAACA5ITRF7CWO6dGzYL1sad8/c7WfA0AAAAA4OwRRp8Fe9YujJraqVXLwljbkR8AAAAAAHCBE0afLXWNsb1jd3T1LJtiWW2+L5E5Dxc+Z/PimJKvAwAAAACcK8JoAAAAAACSE0YPA929nIv/zdt4zF/bVdjTFWsXVG8r1xrL832lZWW05Hsyg/aI7lgf8wvnLN+WrwMAAAAAJCSMHi6aG2Nbfd7Co6kh2gpLTW1D/GxJ+ba7KvpM71nbGu9rzvcXlscammNp2YSFAAAAAADDhTD6bGlvitnlVczVoXFDU6yZl4/nLYkVdYX/9tnWHk+19lZHT1m2uqLv9Jz6hsLndEZnvj6o2sWxtWN37/UBAAAAABISRp8t1RMYDmFiwWmTJ+ejge1Zu7A34G5szrcCAAAAAAwvwujzVqlf9Ozts3tD7qaGfB8AAAAAwPAijD5fbWuNLdEQjw2hwhoAAAAA4FwTRp+vJk+OadEZe3omNGyN5SfTpqNjfcyvnRrLt+XrAAAAAAAJCaPPluoJDAvL/LW9kxGetNrF8UhjxEMN3ddrjXnadAAAAAAAw9So4wX5GAAAAAAAklAZDQAAAABAcsJoAAAAAACSE0YDAAAAAJCcMBoAAAAAgOSE0QAAAAAAJDfqeEE+JpE3f/Pb+MWBQ3H4yK/jd143AAAAAIxYbxk1KsaMfnu8c/zYuORtb823jgzC6MSyIPpnP98b7750Qox9x+i46CLF6AAAAAAwUh079rs49Ksj8dq+/fG+904cUYG0MDqxn7/6Rox++yUx/t+8I98CAAAAAIx0B/7lV3Hk12/Geyddlm+58CnTTSxrzZFVRAMAAAAAdMsywyw7HEmE0YllPaK15gAAAAAAymWZ4UibX05KCgAAAABAcsJoAAAAAACSE0YDAAAAAJCcMBoAAAAAgOSE0QAAAAAAJCeMBgAAAAAgOWE0AAAAAADJCaMBAAAAAEhOGA0AAAAAQHLCaAAAAAAAkhNGAwAAAACQnDAaAAAAAIDkhNEAAAAAACQnjAYAAAAAIDlhNAAAAAAAyQmjAQAAAABIThgNAAAAAEBywmgAAAAAAJITRgMAAAAAkJwwGgAAAACA5ITRAAAAAAAkJ4wGAAAAACA5YTQAAAAAAMkJowEAAAAASE4YDQAAAABAcsJoAAAAAACSE0YDAAAAAJCcMBoAAAAAgOSE0QAAAAAAJCeMTuwto0bFsWO/y9cAAAAAAKKYGWbZ4UgijE5szOi3x6FfHcnXAAAAAACimBlm2eFIIoxO7J3jx8Zr+/bHgX/5lQppAAAAABjhsowwywqzzDDLDkeSUccL8jGJvPmb38YvDhyKw0d+Hb/zugEAAABgxMpac2QV0VkQfcnb3ppvHRmE0QAAAAAAJKdNBwAAAAAAyQmjAQAAAABIThgNAAAAAEBywmgAAAAAAJITRgMAAAAAkJwwGgAAAACA5ITRAAAAAAAkJ4wGAAAAACA5YTQAAAAAAMkJowEAAAAASE4YDQAAAABAcsJoAAAAAACSE0YDAAAAAJCcMBoAAAAAgOSE0QAAAAAAJCeMBgAAAAAgOWE0AAAAAADJCaMBAAAAAEhOGA0AAAAAQHLCaAAAAAAAkhNGAwAAAACQnDAaAAAAAIDkhNEAAAAAACQnjAYAAAAAIDlhNAAAAAAAyQmjAQAAAABIThgNAAAAAEBywmgAAAAAAJITRgMAAAAAkJww+oLRFWsXTI2aO1sr1uev7crXT2Rox7fcWf4ZF66R8pwAAAAAcLYIo8+yYshZuzJa8nUAAAAAgJFAGH02dayPbzTXxbS65ti2Ld92xtTEss27o+vh+nz9fHSy1dyD27N2YdQsWB978vWktq30jwwAAAAAMAhh9Fm0p3V7tDUsiUdm18WWdWcpJAUAAAAAGAaE0WdNV7Rsb4+b6utjyrIlcVP79mjpyHcV9N+juKpSuGN9zK/N2nzkS0XV74mriouVwmXnD3Rs5XEnrvatvu7yE1V9F6uIe48vPnfx2RriofaItqaG4vbe+2uN5eXHV91T97srtUDJzvtR8V3MbipcrL0pZmfnDFohXXX9fntFD3wPxc9tbC6MmmNp1b4+55XfR/59nvB9AQAAAMAFQBh9tmxbFw+1N8S8edlKfcxraI+H1vWGnnPqGyKaWyuD3/yc25bVFFdb1nXGbR27o6u4NMeKaIrZQ55krzW+0bkkP7ewNDdGNDX0CUKzIPiOeLDnuMcasoB14EA6C6Jnb58d28uu29k4SMCaBbCNnbGiOT++oyluyrbXLo6t2TPVRUxrbC7u25o/9561rfG+nuPze6oOlwufu62+tH/rsj8ptizZ3li4WF1j6d42L44p+aGVsrA4u+fSZ2bL9snrYmmWLZcZ7B7mPFzYVnhvEQ3xWHH/6phTPKt07WgqO29y4TsbNBgHAAAAgAuTMPosaWltjmioz0PKfsLnefVxU1T2ku5zzsPdIWemJubMrovo7BpisFkfa8r7SdfWx9zi6VXV0Q1NPSFwZs7DWVg8UI/r1vhGU8SKB8uC3trFcVvh0ba0DhCSd3ZGW0yOKbX5evV99WPKstWxrOf4/N21d0Znvl5U1xi3FYP+k7Nn7brYUjj3kbJnnrJsUzyWZctlhnQPVYrXLrzPNWX3NWdJY0zrroovBvC7K/YDAAAAwIVKGH1WtMa25rpYsaQsdO0TPtfHbY11ZSFuP+cUdLeiyJZiG4qTUt4yotQSo9q0yZPzUbfJ8b7+QutMR1d0Rns81NB7T9lSXVVcYd6SWFFXamdxMhMVVrQCKbbEqDK5ZoDK58F1drbHtNn1Qzr3hPdQJbt2VrHdc062NDRFW74fAAAAAEYSYfRZUKyQ7RPaNha2RcVEhlPqZ8e07mrpba2xpW52zOmuxs37Cy+Npp6WD8U2FENUClLLW0aUWmKcvu7WFFXLgNXONcUWGll7jsl9ekP3pxSgV7QCKbbEOJtO/R66W45ULpsqqqwBAAAAYCQQRidXmriw31AyCzTLJzIsts4oVUtnLTrKK3b3tG6Ptqz/8QlaWvSv9x5OuiVER2s81V4Xc+t721j0qK2JyQO28DiR+lhTeAdZoN62vXXgViNZKJ8F3gP2fD59fT+/K/aU9984xXuYPPkEzwYAAAAAI4gwOrXBwtxiy4r2eKq1uzK4JpYtaYgtrStjW3PvxIWZKTWTK3sUd6yPO4bcpqMmphROb+vsTVj3rL2r3zYd2QSGvZMPdsXau5qirbxCu0I2EWPElsbKCQ73rF0Za7sD9mrbVg48uWE/9xmTJ8e0wlPv6bleaywfQouMTJ931o9SD+emuKOsOrvPuxnKPfQ5Jq90r7p28dzuSSfzaveB3wcAAAAAXDiE0Ym1rBsszC1NQtjWtK5yIsPm5thSNnFh0bzV8VhDqddysc3HXVHsMT1UxYkIy/oX3xFZEJ7vLDOtsSnet667lUhDPBSNsX2QiuA5D++uvK/CMruzftA2FFsay47NWl+UXb8YDuf3WWzfUbs4HmmMshYnrTFvqG06yvpT1yzobYdSIZtEsPB5Ubhm9z3dEQ9WTmA4lHsoTtzY3YolD+f7uXZN7bp4X1UfcAAAAAAYCUYdL8jHAAAAAACQhMpoAAAAAACSE0YDAAAAAJCcMBoAAAAAgOSE0QAAAAAAJCeMBgAAAAAguVHHC/Ixibz5m9/GLw4cisNHfh2/87oBAAAAYMR6y6hRMWb02+Od48fGJW97a751ZBBGJ5YF0T/7+d5496UTYuw7RsdFFylGBwAAAICR6tix38WhXx2J1/btj/e9d+KICqSF0Yn9/NU3YvTbL4nx/+Yd+RYAAAAAYKQ78C+/iiO/fjPeO+myfMuFT5luYllrjqwiGgAAAACgW5YZZtnhSCKMTizrEa01BwAAAABQLssMR9r8clJSAAAAAACSE0YDAAAAAJCcMBoAAAAAgOSE0QAAAAAAJCeMBgAAAAAgOWE0AAAAAADJCaMBAAAAAEhOGA0AAAAAjHj/+I//GJ/97Gdj1KhRJ1ze+973FpfsHIZOGM3J27YyampXRku+2r+uWLtgasxf25WvAwAAAMDwlQXRmePHj59w+eEPfxif+cxn4kMf+lDxHIZGGE0fe9YujJo7W/O1RDrWx/wTBtoAAAAAcHY888wz8a1vfStfG9x73vOe+Iu/+It8jaESRlOlNb7RFLFiSX2+nkbLusKHNC6JOfk6AAAAAJxr/bXkGGjRpuPkCaOptK01ttTNjjm1+XoSrbGtuS7m1tfk6wAAAABw7vXXkmOwhZMjjB6mWu6cWmyVUfxvbWkp9V8u9WKu3Natu09za8Uxy7dl+1pjeb7eu61a4fx1zXHTksUxJd+SKb+HAXtFF9tu9B43f21nvqOvPWvXxZaGJbGstvc5K+XP8ZW/KVxzYaztyDd36+5ZPUDv6mKbkQXr4z8Pdm29rAEAAADgrBJGD2fNjbGtfnd0dRSWpoZoKyw1tQ3xsyXl2+7qE9a2Na2LeLB0zPbGutjSmAXE6+J9zeXb+gmVO1rjqfaGmDcvXy/IwuKlnY2xPfu8bGmeHN9obM735rIguqEpJjflxxSW2wrnPNSe76/QFS3b2+Om+lIbkDn1DYXnbK28l+J91MXcP/tfY25dezzVWhkct7QWPr+hPubMq4+bojm2VQTrpetPm10ffzHYtVVlAwAAADCAbGLC7gkNBxpz8oTRw1lDU6zpDobnLYkVdYX/9tnWN6yd1vhgseo4M2XZkrip323VIW707ePcsT6+0VwXKx4sq5SuXRxbmxrylZLsvLby+yqY83Bz6X6rbVsXD0Vj3FbxDJX3sqd1e+F6WeV0TSxb0hBt21tjT76vu8VHqad1fdyWBeutZdXPeaB+27KaE1w73wAAAAAAVbJe0N39oAcac/KE0eeZaZMn56OTM7nmRJXA/fRx7uyMthP2j+6KPZ3RU+l8IllVc1a13NsGpCbmzC4PlCsrpyOrfm7fHi3d1d9VPa2n1M+OaWXVz6WwuT4P1E9wbQAAAADox89//vP44Q9/OOiYkyeMpqi8j3MyxUrrvGq5TEWgnFU2l1dOR33Ma+it/s7C7Iqe1rX1Mben+jkLmyOvmi4Z/NoAAAAA0JfWHGkIoykYpGK4vCo5t6er7+SEFa0yijrjZ1U9oyurlsvULo7bGkqBcnZMVFROR8xZ0hhRbNWRVW9X9rTOqp+zVh7Fzy+GzVWV3Ce4NgAAAABU05ojDWE0ffs4d8t7Uj901/rens0d6+OOpvKUuRQGZ5MtLi/rzdxyZ2NsycclrfGNpsqq5XLZRIZbWtcXK5v7TC6YVT/H9mhZ2xpb+guzs1Yeza2xdoCwedBrAwAAAEAVrTnSEEbTTx/nbjWxbHNzrIimmF07NWqy5a6IR6omMIx5q6OrsG1LY35MYdlWXzWBYVWv5z6KgXJTPDS5v1YhWe/niIeaOgcIs7NWHs2F/ZP7tAApGvTaAAAAABBx4403xle+8pV8bXBZpXTWuuMzn/lMvoWhGHW8IB+TwE/afhZXT3tfvjYMdayP+Q2dcVvH6r4Vx2dMV6xd0BA/W7I71gzYr7k1ltc2RjT1f8yetQtj9vbZsX1zWb/oMi13To2l0RRdD/cXVg9+bQAAAADoDpifeeaZfMvg3vOe9xQrprP/nqphnx2eYSqjR7iWdU3993E+k7I2IO3VvZ6rZJXTMdAxpZ7W/VdvZ7Je0tF/z+vMoNcGAAAAgN5wOavdHcqSte84nSB6JFIZndhI+9eNU1OqnH5qdnNs7a/NxraVUdMY8dgA1duDV02f4NoAAAAAcI6ojIazKAuSa2ob4qHJTf2ExVl7jalR09gZK5r7CaKzFiOF/bObJsdj/QTRg18bAAAAADibVEYnpjIaAAAAAOiPymgAAAAAADjDhNEAAAAAACQnjAYAAAAAIDlhNAAAAAAAyQmjE3vLqFFx7Njv8jUAAAAAgChmhll2OJIIoxMbM/rtcehXR/I1AAAAAIAoZoZZdjiSCKMTe+f4sfHavv1x4F9+pUIaAAAAAEa4LCPMssIsM8yyw5Fk1PGCfEwib/7mt/GLA4fi8JFfx++8bgAAAAAYsbLWHFlFdBZEX/K2t+ZbRwZhNAAAAAAAyWnTAQAAAABAcsJoAAAAAACSE0YDAAAAAJCcMBoAAAAAgOSE0QAAAAAAJCeMBgAAAAAgOWE0AAAAAADJCaMBAAAAAEhOGA0AAAAAQHLCaAAAAAAAkhNGAwAAAACQnDAaAAAAAIDkhNEAAAAAACQnjAYAAAAAIDlhNAAAAAAAyQmjAQAAAABIThgNAAAAAEBywmgAAAAAAJITRgMAAAAAkJwwGgAAAACA5ITRAAAAAAAkJ4wGAAAAACA5YTQAAAAAAMkJowEAAAAASE4YDQAAAABAcsJoAAAAAACSE0YDAAAAAJCcMBoAAAAAgOSE0QAAAAAAJCeMhqHoWB/za6fG8m35OgAAAABwUoTRZ1VrLK+dGjUVy8poyfcCAAAAAFyohNFnyZ61C6Omdl28r3l3dHX0Lo81dMaejvygYakr1i6YGvPXduXrI8C2lX3/kaB2cWwtfF9r5uXrAAAAAMBJEUafDdtWxuymyfFYx6ZYVptvy815uO82AAAAAIALjTA6ua5Yu645pjUuiTn5lv6VKpCrexIXK6oXrI89+XrLnVOj5s7W0n9r84rlYj/jhbF2W6mvcXlVb6kiu7slSNX1u8/rqGwf0lMFXdzfEA+1R7Q1NVTu61d1G5Ls2vmuMtX3lD1Pj2JVctm+7mfPtpe9h5LS5/U8U8/zlN5lv9cvqr7P3vdVfK+NzYVRcywt39dz7Wyl24met7eqvPv7Ki7lz1G8rl7UAAAAAFz4hNGpdbTGU+11Mbe+Jt9wBjQ3xrb6UpuPrcu6r9seD62LeKTY/mN1MfjOQt/Z22fH9rwlSFfhvM7G6uCzcF5Da8zrPqapIdqa7iqFqsXWFM2xoi5iWmNz1edVKYaq2fVLx5WuNblw7crPy0LZUpV4fkxHU9yU7yuG1I2dsaKnlUnhsyfnO4cse567Ih4su37hucsD6T1rWyvapTzW0BxL84B4zsOFbYV3ENGQ32PpXfYxxOfNZEF+9/dVvJ/2prhjJLU9AQAAAIACYfRZMTmmnMlWHHWNcVs/vYtvWrI4puTjrGr3G00RKx4s21a7OG5riNjSWlkpfFNTWeA6b0msqGuPp1pPLixtWdcUbQ1NlWH1vNXxWPnndayPbzTXxYrm8oC3PtY8XF/4b3a/7YV7KW9bUhPLHi5/pqGpvEbh+lm43NzaU/08ZdnqitYoc+oL+9s7ozNfH4ohPW+3wnG9vabr47bGumjb3lqqjtaLGgAAAIARQhh9VpzhSQon1/QT0NbF+8qriDu6Cp+aVQmXtYcoLEuzDhQVqs47JV2xpzPipvosVK5UDHo7C/uzlc7OaKubHXP6C+aL99sQ8047lO3neSZPjmlV30FFq5BiW46TMcTnzU0rfD4AAAAAjHTC6NRqa2JytMfPTqbs9ozpbjVRtRQrkUeqUp/nivYlxbYcAAAAAEBKwujk6mNe1rphXfXke/3r7Kpsj9HZ2Z6PTlIxBG+ObWdlYryamDK5n/YUBS2tzb2V3FmFcvv2aOmvSnwo91vdSqNYTX1ie1q391Zkb2uNLVlIv/nk23/0GuLzAgAAAAA9hNFnwZyHm2NFNMXs2pU9fYu7tdy5sDRZYNTEnNl10da0rveYbSv7aasxVHkI3lj5mXvWrsw/b6hKwWtb5+Cx75wljTGtuTHml0/MV7z/ulixJK/ELvaszlqHlN9TaywvTi5Y6qW8pbH7fWS6Yu2deYg/rz5uiub4Rs/1C/vuaoq2fK1X1fU71scdTe0xbXZ9byBe0bKj8PnVbTr6aetRbUjPOxTFiRD7TnoIAAAAABcaYfRZURPLNu+O7Y2dsbS7T3G+LI0lPZPpTVn2YKyoa+49prW+cE5daecpmPPw7nisoex6hWV2Z33F5H1D0R28ZudXhK/lson4CsdEU0PPZ9UUVh/rKJ9MsL97KhyU916esmxT4XmjrM91Qzw1OQ+R84kI23quf1fEg01xU3FfubpY0TQ5vtF9/YamiMbm3okGC/f5SMVntMa86jYdPaF5tr/vPyAUDfF5AQAAAICSUccL8jGc37Iq44btMbdZIAwAAAAAw43KaAAAAAAAkhNGAwAAAACQnDAaAAAAAIDk9IwGAAAAACA5YfRZ8PwLL8U//OTl+PWbb8Y/vfpavpUL0R9MnBi/9/a3xQeuviKuu+bKfCsAAAAAIIxOLAuid/7/fxJ1tZOjftYN+VYuZK0//HG0v9IZM/6XqwXSAAAAAJDTMzqxrCK67nJB9EhS/6Ebiv/4kH33AAAAAECJMDqxf/31b4rhJCNL9o8PWVsWAAAAAKBEGJ3YP+/dm48YafQHBwAAAIBewmgAAAAAAJITRgMAAAAAkJwwGgAAAACA5ITRAAAAAAAkJ4wGAAAAACA5YTQAAAAAAMkJowEAAAAASE4YDQAAAABAcsJozrznvx23r/x27MxXz6nhdC8AAAAAMIIJoy9Qe7c+ErevvLdqeSS+93p+AAAAAADAWSSMvpCNuz7uXn1fPNqz3BEfe1e+DwAAAADgLBJGAwAAAACQnDB6pOrupVz8b97G44GW2FvYVdHiI9/WbecThW1P7MrPz48ZUvuPXbGu5/iqc15viVX9XaO633PxuLJrZPdRpXh/PcfoFQ0AAAAAw4UwekTriA0v1+UtPBbEtIPPxgMr740HfjmzYtvjW9/Ij8+9sjlu7znvvrj7hoin1wwSSBdD5M2x74alPec8+vEJhXPujXXPF/a/64q4ctyheGlX5efsfLkj4vK6mJGtZNdYszuuXJ6fv3ppzDpQuI+yQDoLojccKGtNsnxCtHyncA0AAAAA4JwTRl/I8nC5p1K4qso5ojYWff7afHxtNNwwtvDfvtsO7n658rysF3XPMRET538iZvUTJnfbue3ZOHj5glg1/7J8S8F1n4pFl0e0vZyFyZfFx2bVVn3OrnjplbExa17pc7JrxA2fKOt5XTonXmkvVT+/3hIt2fGfnhMTi/sL3jUnVn28cAwAAAAAcM4Joy9k1RMY3l0W1A5k3ISYlA8HNH581XUui0vHRxz8ZX+l0W/EvgMR067oDa+7zbiiNuLAgVIAfV1dTDu4O57vvsTz7dE2bmpcVwyfS9c4+OPHylpwFJbyqufX9sfBnuMBAAAAgOFGGM0wcW1ceXlvdXXWomParMrwfNrHy4L1nuVTpTYeAAAAAMCwJozmDMhaavRf/dxdNV1qx1Gp2BO6rMp6xrzrI4qtOrLr1caV1+U7BrlGhfLK6tzeffvzEQAAAABwLgmjOXmvbI5VZZMa7nxic7RFeXhcKQuZx1WdE89/OzaU9YQuyiYyjN3x/Nb2aOueuDBXbOlRuEZxwsNur7fEuu5rXvfhYt/qp58s64td2P/4jw/lKwAAAADAuSSMvpBVT2BYWCoC4VN1+YKY88ve/s0bXqmNRYO1y8gmElx+fUR5z+fvROGcO8omJMxcFtdNjXj6x/srQ+rMdZ+KRz9eG23f6X2W29fsjyt7JkW8LD5299KYFWXP/GTErSYwBAAAAIBhYdTxgnxMAlkomvU2vlDsfOLe2BAL4tHP99eS4/Tt3fpIPLB7atw9lMkWh7kL7bsHAAAAgNOhMpph5I14fvehGDf1ivM+iAYAAAAAKgmjGT6e/+/x9MHamNPTegMAAAAAuFAIoxkGdsW6rMfzd/bHrOWD9J4GAAAAAM5bwmhOyozP35egX/S1sWR14bp9JjQEAAAAAC4UwmgAAAAAAJITRgMAAAAAkJwwGgAAAACA5ITRAAAAAAAkJ4wGAAAAACA5YTQAAAAAAMkJowEAAAAASG7U8YJ8TAK3r7w3HzESPbr6vnwEAAAAACObMDqxLIwWSI5MvnsAAAAA6KVNBwAAAAAAyQmjAQAAAABIThgNAAAAAEBywmgAAAAAAJITRgMAAAAAkJwwGgAAAACA5ITRAAAAAAAkJ4wGAAAAACA5YTQAAAAAAMkJowEAAAAASE4YDQAAAABAcsJozp3XW2LVykfie6/n6+fS89+O21d+O3bmqwAAAADAmSWMPs/sfOLeuP2JXflapcH2AQAAAACcS8JoAAAAAACSE0YDAAAAAJDcqOMF+ZgEbl95bzy6+r587fRlrTg2xIJ49PPX5lt6Ve/rXr/793fEAz8+VNwWURuLVn8qZuRrmb1bHynbHzHt4/fFkuvylayX8nciFn08YsN3Okrbxl0fd989J6L8vHzbxNJa771c0V44Pz8vxsas5XfEx96Vr2Y9o9fsjivLt8Ub8b0HHounD+arBb33U9r30tSlsWr+ZcV9Jbti3crNET3HldbbivsKqu4tU7y/V/KV7J0Un6/wnFXv5nSc6e8eAAAAAM5nKqMvdK9sjsfjE8VQ9NHVS2PWuI7YUNZXuhhE754adxf3F5bl18e+79wb657PDygqnPNyXX6NBTHt4LPxwMp744FfzqzY9vjWN/Ljc4XPvr3nvPvi7hsinl4z2ISFWYj8WDw9fkHPOd33s6p47cviuqlj4+Dul2Nv6YSS59ujLWrjyrIgOgumu6+xaHzhfh9o6TmnGEQfuL7smSdES09gDgAAAACkIIy+0I27Pm7tqSK+LD42qzbilfbYWVzfFc0/jpj16bKq4XfNiTmXR7S9XD4RYm0s6qnEvjYabhhb+G/fbX1C4qwiuayCe+L8T8SscYfipV1VoXVu79Yd0VZ1TnY/t5Zde+L8mTHt4O54vizQ3vlyR4y74cPFiubiNS5f0FvZXTBj3vUxrvuc11ui5ZWxfZ551ccL7wUAAAAASEYYfaEbP76iPUWF1w/EvjgUT6+5t9hSonvpbV8xiHETYlI+HFCfz74sLh0fcfCX/ZdGv/rLQzFu6hV97nfitVNj3MH98Wpx7dq48vLyQHtXvPTK2Ljy2lLgnl2jWJFd9jy3r3k2erp+vLY/Do6bGtf1tAUBAAAAAM4GYfSIl/WQ7m1p0bOUVycPMzOuqO2tws5adFw+s6zndMS4G5b2fZ7V5X2pAQAAAICzTRh9npn0+2PL2myUyyqEI6ZdcRIh8rvGx6XRES9V9IdOafB7zJ6tT6uPgr27dsfB8krs6z4cs6LUdiNr0VF+vYGuUaGqzUdm7779+QgAAAAASEEYfZ4p9kzOJhQsm4Qws/OJzcV+yw1lvZJPLGt5EdH2nW9XhNt7t357kEkGT8Irm/OJB0uK99gz0WBfpX7Qz8YD5c/2eks8/uNDMW1WWY/n4kSGES/taomXXqm8XqmlR/VkirtiXfc1syB73KF4+sneCQ27PwMAAAAASEcYfd65NpasXhqzDlT2Rd4QC+LRu8sD26GZ8fn7YtHlHbGh7FoP/LLuzLS0uHxBzPnlY733+ErWEuRTxYkG+5c924KYVt7zec3uuHL5fRUTEmay0Dl+/Gzsyycu7JFNRrj8+sK+3s+9feWOeOe87urpy+JjdxfeXzwbD3TvfzLiVhMYAgAAAEBSo44X5GMSyMLOrGfxSLPziTwgT9V7+vWWWFUMqodvL+iR+t0DAAAAQH9URnNeKvWRnhrXmZQQAAAAAM4LwmjOQ7uiuU8faQAAAABgOBNGc17J2n/cvnJz7LthaZ8+0gAAAADA8CWMJolsYsQU/aKL1119X6yaf1m+BQAAAAA4HwijAQAAAABIThgNAAAAAEBywmgAAAAAAJITRgMAAAAAkJwwGgAAAACA5ITRAAAAAAAkJ4wGAAAAACC5UccL8jEJ3L7y3nzESPTo6vvyEQAAAACMbMLoxLIwWiA5MvnuAQAAAKCXNh0AAAAAACQnjAYAAAAAIDlhNAAAAAAAyQmjAQAAAABIThgNAAAAAEBywmgAAAAAAJITRgMAAAAAkJwwGgAAAACA5ITRAAAAAAAkJ4wGAAAAACA5YTQAAAAAAMkJoy9Yb8T3Hrg3Vm19I1/PPf/tuH3lvYXlkfje6/m24eb1llg1XO6v+L6+HTvzVQAAAADg1Aijh7G9Wx/Jg+Pu5TQD2izk/c7+mLX8vnh09R3xsXfl2/tTDITLP7u09Am3AQAAAACGQBg9TO184t54YPfUuHt1FhyXlrtvmJDvPUWv7Y+DMSEuHSyErjA2D657l1XzL8v3AQAAAAAMnTB6WNoVL70yNmZ9ek5MzLdkJs7/1ODVzAAAAAAAw5Qwetg6FC/tOlFLjF2xrryNxgMtsTffUy2rtL79Ox2FUUdsOMGxQ9LdS7mnB3XvNSvai1R9TvE+nthV1rs6W4bSfqTqWSvOGaA/dn7Ouufz1SG8r+L99RyjVzQAAAAAnCnC6GHp2ljy8do4+OPHSsFtv7JgdXPEx3tbaCwa/2w8MEDIPOPzhWMK14yojUXZ8XdXVl2fmo7Y8HJd/vkLYtrBwuevvDce+OXMim2PV4fEr2yO23vOy9qPRDy9ZpBAuti/enPsu2FpzzmPfnxC4ZzuoPmyuG7q2Di4++XKZ3++PdoKz3vlddnKid9XFkRvOHB9b2uU5ROipRjgAwAAAACnSxg9XF33qSiGuVlwm1XpVoXSe7fuiLbLF8SSYtBaMmPe9THu4O54/nQmOaxwqBj49lYKVwfGtbHo89fm42uj4Yaxhf/23dYnJB53fdzdc0zWfuQTMWvcwJXgO7c9GwcLz1rRr7rwfhZdHtH2cum9TJw/M6ZVPfvOlzti3A0fjhmF8Qnf1+st0VLdGuVdc2JVMcAHAAAAAE6XMHpYuzaWFKt0u0Pp3rYRr/7yUKnCuCcoLixrno2D+f6hGaz1RaZ6AsM7TtyzetyEmJQPBzR+fFVV9mVx6fiIg7/sL0V/I/YdiJh2RW943W3GFbURBw7kQfe1ceXl5YF2qe/2ldeWAuwTvq9scsdxU+M6PbkBAAAAIAlh9HkhC6WXxqxxHdFS1vJiXHnbipMJjHt0h92ncu7wk4XTPVXYWYuOy2dWPM/pvy8AAAAA4FQJo88bldXDk36/n/YX562sirn/6ufu5+5ux1Eua8NRUWV93YdjVpTabmT7yq83pPfVT4uTvfv25yMAAAAA4HQIo4elXbGueuLCYk/j3sB24rVTY1yfyQH7OW84emVzrCq7751PbC6baLCvYm/nqnPi+W/HhqzH87zyADubyDDipV0t8dIrldc74fvKguxxh+LpJ8smgCy888d/fChfAQAAAABOhzB6uOrT33h3XLn8vt4J+LLJ9ZZfH/Hjx8qO2xHvrAhnT1f1BIaF5YGysPZUXb4g5vyy9743vFIbi1Z/qjjRYL/6e9bvROGcvi02stA5fvxs7MsnLuxxwvd1WXzs7qUxK56NB7r3PxlxqwkMAQAAAOCMGHW8IB+TQBZqZr2JKdn5xL2xIRbEo58/k6F5mddbYlUxuD/3vaB99wAAAADQS2U0F5S9u3bHwXFT4zqTEgIAAADAsCKM5gKyK5p/fCimzZrTO6khAAAAADAsCKO5IGTtP25fuTn23bC0t682AAAAADBsCKM5q2Z8/r4k/aKL1119X6yaf1m+BQAAAAAYToTRAAAAAAAkJ4wGAAAAACA5YTQAAAAAAMkJowEAAAAASE4YDQAAAABAcsJoAAAAAACSE0YDAAAAAJDcqOMF+ZgEbl95bz5iJHp09X35CAAAAABGNmF0YlkYLZAcmXz3AAAAANBLmw4AAAAAAJITRgMAAAAAkJwwGgAAAACA5ITRAAAAAAAkJ4wGAAAAACA5YTQAAAAAAMkJowEAAAAASE4YDQAAAABAcsJoAAAAAACSE0YDAAAAAJCcMBoAAAAAgOSE0ZwFb8T3Hrg3Vm19I18HAAAAAEYaYfQItvOJe+P2leXLt2Nnvg8AAAAA4EwSRo9IpUrlDbEgHl19X8+y6PJ8d8HerY/E7Q+0xN58fVh6/tsCdAAAAAA4TwijR6LXX46XDtbGos9fm28omfH5T8WMfAwAAAAAcCYJo0esjnjp+XxYoVQ1/cCPD0UcfDYeyNp35BXSxWrpJ3aVDuv2ekusWvlIfO/1fD1T3Nbb/mPV1vKd3XbFurJjqquwiy1ECp9V/Mye43qroIv7v9NRGHXEhqp9AAAAAMDwI4weid41J269YWy0fae/SQUvi4/dfV/cXdgf466Pu7MWHnfPiYn53hPKgug1z8alH+9t/zHnl5vj6YP5/qIsiN4cUXbMovHPxgPVbUFe2RyPxyfyY5bGrHEdsSEPw2d8vrDt47WFUW0sKu5X1Q0AAAAAw5kweoSaOP+OeHT59RE/fqxYddw3lD41O7c9GwcvXxBLrss3FMz4fBYk5ysFe7fuiLbqY+ZdH+MO7o7ny4uox10ft86/LF+5LD42qzbilXYV0AAAAABwHhJGj2TvmhOrsqri7lD6tCcsfCP2HYiYdkVlL+pqr/7yULHqubf9RmFZ82xUFE9nxo8fekU2AAAAADCsCaPJQ+kFMe3gs9Hcbx/pM2/cDUt7WnT0LnfEx96VHwAAAAAAXFCE0eTeFe8cF7Fv3wnadRw4UFk9/dr+PhXNbS9XTXIYr8cvyg6a9Ptj4+Dul0+zChsAAAAAOJ8Io0ei11tiXXWP6Of/ezx9cGxceW2pR/PESydEHNwfrxbXSiZeOzXGVVRP74p13+nIx5nuvs6bY11ZhfXOJzZHWz7OdF/n8Yp7KFwrn5xwyN49IcbF/thX3mcaAAAAABiWhNEj1L584sKe5TsRi8rbZFz34Zg1riM2ZPu6e0m/a07cesPYaPtO93ntceXy66NsbsLCeZ+KRz9eW3bMvfHSFZUTGBbbgpRNnlhadsQ75w3ea7qPwnXmXH4onl6Tnf9tExsCAAAAwDA26nhBPiaBLGjN+iEz8vjuAQAAAKCXymgAAAAAAJITRgMAAAAAkJwwGgAAAACA5ITRAAAAAAAkJ4wGAAAAACA5YTQAAAAAAMkJowEAAAAASE4YDQAAAABAcsLoxP5w0rvzESPNH0ycmI8AAAAAAGF0Ym+/5JJoffrH+RojResPfxy/9/a35WsAAAAAgDA6sQ9cfUW0d3QWw0lGhuwfH9pf2VP87gEAAACAklHHC/IxiTz/wkvxDz95Of7117+Jf967N9/KhShry5JVw2dB9HXXXJlvBQAAAACE0QAAAAAAJKdNBwAAAAAAyQmjAQAAAABIThgNAAAAAEBywmgAAAAAAJITRgMAAAAAkJwwGgAAAACA5ITRAAAAAAAkJ4wGAAAAACA5YTQAAAAAAMkJowEAAAAASE4YDQAAAABAcsJoAAAAAACSE0YDAAAAAJCcMBoAAAAAgOSE0QAAAAAAJCeMBgAAAAAgOWE0AAAAAADJCaMBAAAAAEhOGA0AAAAAQHLCaAAAAAAAkhNGAwAAAACQnDAaAAAAAIDkhNEAAAAAACQ36nhBPiaRf977enz/B09F1z++GseOHcu3krnoooui5j2T4qMfmRt/MPFd+VYAAAAA4EIjjE4sC6IfXvsfiyF09qJHlTaT634nWSh957K/FEgDAAAAwAVKm47Esoro7mpoQXRf3e8ke0fZuwIAAAAALkzC6MSy1hxKz08se0fZuwIAAAAALkzC6MSyil8V0SeWvSP9tAEAAADgwiWMBgAAAAAgOWE0AAAAAADJCaMBAAAAAEhOGA0AAAAAQHLCaAAAAAAAkhNGAwAAAACQnDAaAAAAAIDkhNEAAAAAACQnjL6QXfOJ+PerV8at1+TrZ9QVces998WjfzUnXwcAAAAAGJgwehj7wJ+vjEdX31e2pAqWAQAAAADSEkYPUx/7q/viL/7wn+M/r7w3bs+X//zTI/ne4eDlePyrhfv6Dy35eqlS+t//+RX5OgAAAABAL2H0sDQnaif+a7z0g7+Lf8i3ZP7hvzwWj7+QrwAAAAAAnEdGHS/IxySQVTSfvDlx9+rrY8xPvxv/7r+8nG+r8pGl8eg1h+I/f7U8sC6dFz+6Nx74QWE16xn9iT+In//dU4Xjb44rR5eOir3PllU0l6qwZ8Wz8XRcH7MmlrYdLn52xK339J5X2tZ9P1kl9M3x3n8qbPvp1MLnTI0x+Z5M5bFDl7UjAQAAAAAuPCqjh6WWeOBHb8SY9998BiYI/L248hNzI37Q3e7j2dg78fq+1y1sq+3Mj+n+7NU3x7gXyrfN7b9n9Qt/F/9u5XfjpSOlEDo7/lSCaAAAAADgwiWMHq5+8FhvcJxNXngaofTeH60ua+9RCrpjYk18LN9StPfZUjV15gfPFoPlvtt+L977fj2hAQAAAICTJ4we1lrigfJq5tVLKwPkIfnXOPhGPuz2xqE4HKNjXH9VzmUO/9/VJwIAAAAAnBph9HkhC6WzNhiXxQf+XGUyAAAAAHD+EUafN16Og7+KGPM/X5avF4weG5PyYdE1YysmERzIB97/BzHmyD/Hiz2tOwAAAAAA0hJGD0tz4u7qHtHXfCI+MDFib2dLaf0HXbE3yiulr4hbPzK1nzA6m8CwrL1H4Tofe//vxeF/2h3/kG86M/oJywEAAAAAcsLo4ap74sLu5RN/ED//u3t7JxTMJyIc8/6b82PmFicZ3Jvv7fWv8dKPDsUHeq4zNeKn341/919ezvefOd/7/+6Ow/l9/3vtRAAAAACAMqOOF+RjErh95b35iKHIgmwAAAAA4MKjMhoAAAAAgOSE0QAAAAAAJCeMBgAAAAAgOWE0AAAAAADJCaMBAAAAAEhOGA0AAAAAQHLCaAAAAAAAkhNGAwAAAACQnDA6sYsuuiiO52MGlr2j7F0BAAAAABcmYXRiNe+ZFKPyMQPL3lH2rgAAAACAC5MwOrGPfmRuT8WvCum+ut9J9o6ydwUAAAAAXJhGHS/IxyTyz3tfj+//4Kno+sdX49ixY/lWMlkInVVEZ0H0H0x8V74VAAAAALjQCKMBAAAAAEhOmw4AAAAAAJITRgMAAAAAkJwwGgAAAACA5ITRAAAAAAAkJ4wGAAAAACA5YTQAAAAAAMkJowEAAAAASE4YDQAAAABAcsJoAAAAAACSE0YDAAAAAJCcMBoAAAAAgOSE0QAAAAAAJCeMBgAAAAAgOWE0AAAAAADJCaMBAAAAAEhOGA0AAAAAQHLCaAAAAAAAkhNGAwAAAACQnDAaAAAAAIDkhNEAAAAAACQnjAYAAAAAIDlhNAAAAAAAyQmjAQAAAABIThgNAAAAAEBywmgAAAAAAJITRgMAAAAAkJwwGgAAAACA5ITRAAAAAAAkJ4wGAAAAACA5YTQAAAAAAMkJowEAAAAASE4YDQAAAABAcsJoAAAAAACSE0YDAAAAAJCcMBoAAAAAgOSE0QAAAAAAJCeMBgAAAAAgOWE0AAAAAADJCaMBAAAAAEhOGA0AAAAAQHLCaAAAAAAAkhNGAwAAAACQnDAaAAAAAIDkhNEAAAAAACQnjAYAAAAAIDlhNAAAAAAAyQmjAQAAAABIThgNAAAAAEBywmgAAAAAAJITRgMAAAAAkJwwGgAAAACA5ITRAAAAAAAkJ4wGAAAAACA5YTQAAAAAAMkJowEAAAAASE4YDQAAAABAcsJoAAAAAACSE0YDAAAAAJCcMBoAAAAAgOSE0QAAAAAAJCeMBgAAAAAgOWE0AAAAAADJCaMBAAAAAEhOGA0AAAAAQHLCaAAAAAAAkhNGAwAAAACQnDAaAAAAAIDkhNEAAAAAACQnjAYAAAAAIDlhNAAAAAAAyQmjAQAAAABIThgNAAAAAEBywmgAAAAAAJITRgMAAAAAkJwwGgAAAACA5ITRAAAAAAAkJ4wGAAAAACA5YTQAAAAAAMkJowEAAAAASE4YDQAAAABAcsJoAAAAAACSE0YDAAAAAJCcMBoAAAAAgOSE0QAAAAAAJCeMBgAAAAAgOWE0AAAAAADJCaMBAAAAAEhOGA0AAAAAQHLCaAAAAAAAkhNGAwAAAACQnDAaAAAAAIDkhNEAAAAAACQnjAYAAAAAIDlhNAAAAAAAyQmjAQAAAABIThgNAAAAAEBywmgAAAAAAJITRgMAAAAAkJwwGgAAAACA5ITRAAAAAAAkJ4wGAAAAACA5YTQAAAAAAMkJowEAAAAASE4YDQAAAABAcsJoAAAAAACSE0YDAAAAAJCcMBoAAAAAgOSE0QAAAAAAJCeMBgAAAAAgOWE0AAAAAADJCaMBAAAAAEhOGA0AAAAAQHLCaAAAAAAAkhNGAwAAAACQnDAaAAAAAIDkhNEAAAAAACQnjAYAAAAAIDlhNAAAAAAAyQmjAQAAAABIThgNAAAAAEBiEf8v264kbjJIKxwAAAAASUVORK5CYII=;" parent="1" vertex="1">
                    <mxGeometry x="-80" y="-10" width="543.85" height="300" as="geometry"/>
                </mxCell>
                <mxCell id="6" value="database (sqlalchemy)" style="rounded=0;whiteSpace=wrap;html=1;" parent="1" vertex="1">
                    <mxGeometry x="380" y="390" width="110" height="40" as="geometry"/>
                </mxCell>
                <mxCell id="9" value="database (sqlalchemy)" style="rounded=0;whiteSpace=wrap;html=1;" vertex="1" parent="1">
                    <mxGeometry x="60" y="390" width="160" height="70" as="geometry"/>
                </mxCell>
            </root>
        </mxGraphModel>
    </diagram>
</mxfile>